# xmcd CD database file
#
# Track frame offsets:
#	183
#	11975
#	25160
#	34128
#	45425
#	54225
#	64138
#	76833
#	88603
#	99328
#	109920
#	122163
#	132758
#	142913
#
# Disc length: 2072 seconds
#
# Revision: 0
# Processed by: cddbd v1.5PL3 Copyright (c) Steve Scherf et al.
# Submitted via: CDex 1.51
#
DISCID=ae08160e
DTITLE=Johnny Carver - It's A Beautiful Day
DYEAR=1990
DGENRE=Country
TTITLE0=If Your're Thinkin' It'ss All Right
TTITLE1=My Baby Used To Be That Way
TTITLE2=Pass Me ByIf You're Only Passin' Through
TTITLE3=Tie A Yellow Ribbon
TTITLE4=Hold Me Tight
TTITLE5=I Start Thinkin' About You
TTITLE6=Goodtime Charlie's Got The Blues
TTITLE7=You've Got Dirt On Your Lily White Hands
TTITLE8=Joy To The World
TTITLE9=Help Me Make It Through The Night
TTITLE10=It's A Bautiful Day
TTITLE11=Proud Mary
TTITLE12=New Lips
TTITLE13=I Want You
EXTD=YEAR: 1990
EXTT0=
EXTT1=
EXTT2=
EXTT3=
EXTT4=
EXTT5=
EXTT6=
EXTT7=
EXTT8=
EXTT9=
EXTT10=
EXTT11=
EXTT12=
EXTT13=
PLAYORDER=
